<svg enable-background="new 0 0 210 125" viewBox="0 0 210 125" xmlns="http://www.w3.org/2000/svg"><path d="m0 0h210v125h-210z" fill="#cddff8"/><path d="m137.7 117.9h-9.3v-8.3h3.4c3.2 0 5.8-2.6 5.8-5.8 0-.3-.2-.5-.5-.5s-.5.2-.5.5c0 .5-.1 1-.3 1.5h-2.3c-3.7 0-6.7-3-6.7-6.7 0-.3-.2-.5-.5-.5h-2.2v-6.4h2.7c2.6 0 4.7-2.1 4.7-4.7 0-.3-.2-.5-.5-.5s-.5.2-.5.5c0 .4-.1.7-.2 1.1h-1.8c-2.9 0-5.2-2.3-5.2-5.2 0-.3-.2-.5-.5-.5h-1.7v-5.4h2.1c2.1 0 3.9-1.7 3.9-3.9 0-.3-.2-.5-.5-.5s-.5.2-.5.5 0 .5-.1.8h-1.3c-2.3 0-4.1-1.8-4.1-4.1 0-.3-.2-.5-.5-.5h-1.7v-5.5h2c1.8 0 3.2-1.4 3.2-3.2 0-.3-.2-.5-.5-.5s-.5.2-.5.5c0 .2 0 .4-.1.5h-1c-1.7 0-3.1-1.5-3.1-3.2 0-.1 0-.1 0-.2 0 0-.1-.1-.1-.1l-9.2-7.5c-.2-.2-.5-.2-.6 0l-8.6 7.5s-.1.1-.1.1v.2c0 1.8-1.4 3.2-3.2 3.2h-1c0-.2-.1-.4-.1-.5 0-.3-.2-.5-.5-.5s-.5.3-.5.5c0 1.8 1.4 3.2 3.2 3.2h1.7v5.5h-1.5c-.3 0-.5.2-.5.5 0 2.3-1.8 4.1-4.1 4.1h-1.3c-.1-.3-.1-.5-.1-.8s-.2-.5-.5-.5-.5.2-.5.5c0 2.1 1.7 3.9 3.9 3.9h2.2v5.5h-1.8c-.3 0-.5.2-.5.5 0 2.9-2.3 5.2-5.2 5.2h-2c-.1-.4-.2-.7-.2-1.1 0-.3-.2-.5-.5-.5s-.5.2-.5.5c0 2.6 2.1 4.7 4.7 4.7h3.8v6.4h-3.3c-.3 0-.5.2-.5.5 0 3.7-3 6.7-6.7 6.7h-2.3c-.2-.5-.3-1-.3-1.5 0-.3-.2-.5-.5-.5s-.5.2-.5.5c0 3.2 2.6 5.8 5.8 5.8h3.2v8.3h-7.1c-.3 0-.5.2-.5.5s.2.5.5.5h22.9c.3 0 .5-.2.5-.5s-.2-.5-.5-.5h-3.4v-8.3h4.4v6.4c0 .3.2.5.5.5s.5-.2.5-.5v-6.3h12.3v8.3h-5.9v-6.7c0-.3-.2-.5-.5-.5s-.5.2-.5.5v6.7h-4.4c-.3 0-.5.2-.5.5s.2.5.5.5h28.6c.3 0 .5-.2.5-.5s-.2-.6-.4-.7zm-32-9.2c1-3 1.2-7.9 1.2-9.4h5c-.2 2.5.1 5 .9 7.4.1.2.3.4.5.4h.1c.3-.1.4-.4.3-.6-.7-2.3-1-4.7-.8-7.2h3.4c.1 1.6.5 6.8 3.3 9.4zm-6.4 0c2.8-2.6 3.2-7.9 3.3-9.4h3.3c0 1.5-.2 6.7-1.3 9.4zm-7.1 0c3.9-2.3 5.1-7.9 5.4-9.4h4c-.1 1.7-.6 7.6-3.9 9.4zm12.1-38.4c.1 1.3-.3 2.7-1.1 3.8-.2.2-.2.5 0 .7s.5.2.7 0c1-1.3 1.5-2.8 1.3-4.4h1.7c0 1.9-.3 3.8-.8 5.7h-7.3c2.1-1.5 2.9-4.6 3.1-5.7zm.9-11.8c-.1 1.3-.5 3.6-1.9 4.3h-2c1.2-1.2 2-2.7 2.2-4.3zm1 0h1.2c0 1.5-.2 2.9-.6 4.3h-2c.8-1.2 1.3-2.7 1.4-4.3zm6.5 0c0 1.6.5 3.1 1.4 4.3h-2c-.4-1.4-.6-2.9-.6-4.3zm-2.2 0c0 1.5.2 2.9.6 4.3h-3.2c.3-1.4.5-2.9.5-4.3zm1.5 5.4v5.5h-5.4v-5.5zm5 6.4c.2 1.1 1 4.2 3.1 5.7h-2.9c-2-1-2.4-4.3-2.5-5.6zm2 13.2c.2 1.3 1.2 5.4 4.1 7.3h-4c-2.6-1.4-3.1-5.9-3.1-7.3zm-3.8 14.7v-6.4h3.7v6.4zm-2.4 0c-.1 0-.2 0-.3 0h-1.8v-6.4h3.6v6.4zm-6.8 0v-6.4h3.7v6.4zm5.5-14.7c0 1.9.2 3.8.5 5.6.1.2.3.4.5.4h.1c.3-.1.4-.3.4-.6-.3-1.8-.5-3.6-.5-5.4h2.4c.1 1.3.4 5.2 2.5 7.3h-10.8c.6-2.4.9-4.9.9-7.3zm-1.9-1v-5.5h5.4v5.5zm1.4-12.2c0 1.9.3 3.8.7 5.7h-4.4c.5-1.9.7-3.8.7-5.7zm2.7 0c.1 1.2.4 4 1.9 5.7h-2.9c-.5-1.9-.8-3.8-.8-5.7zm-5.2 6.7v5.5h-5.2v-5.5zm-2 6.5c0 2.5-.4 5-1 7.3h-3.9c2.1-2.2 2.4-6.1 2.4-7.3zm-5.5 8.3h3.8v6.4h-3.8zm20.3 16.9c-3.4-1.8-3.9-7.7-4-9.4h4c.3 1.6 1.5 7.2 5.4 9.4zm12.7-2.3h1.8c-.9 1.4-2.4 2.3-4 2.3h-1.1c-.1 0-.1 0-.2 0-5.9 0-7.7-7.3-8.1-9.4h4c.3 4 3.6 7.1 7.6 7.1zm-10.4-8.2h-3.8v-6.4h3.8zm5.5-9h1.3c-.7 1-1.8 1.6-3.1 1.6h-.9c-.1 0-.1 0-.2 0-4.6 0-6-5.6-6.4-7.3h3c.4 3.2 3.1 5.7 6.3 5.7zm-8.5-6.7h-4.6v-5.5h4.6zm4.6-7.6h.8c-.5.7-1.4 1.1-2.3 1.1h-.6c-.1-.1-.2-.1-.3-.1-3.5 0-4.6-4.1-4.9-5.6h2.2c.2 2.6 2.4 4.6 5.1 4.6zm-7.4-5.6h-.4c-.1 0-.1 0-.2 0h-4.3v-5.5h4.9zm4.2-7.1h.4c-.4.4-1 .7-1.6.7h-5.3c-1.5-.8-1.8-3.3-1.9-4.3h1.6c.1 1 .4 3 1.9 3.5h.2c.3 0 .5-.1.6-.4s-.1-.5-.4-.6c-.8-.3-1.1-1.7-1.2-2.6h1.6c.2 2.1 2 3.7 4.1 3.7zm-12.9-11 7.8 6.3h-15zm-12.7 11h.4c2.1 0 3.9-1.6 4.1-3.7h1.5c-.3 1.3-1.2 4.3-3.8 4.3h-.6c-.6.1-1.2-.2-1.6-.6zm4.3 1.7h4.8v5.5h-4.8zm-7.8 11h.8c2.6 0 4.8-2 5.1-4.6h2.2c-.3 1.5-1.5 5.6-5 5.6-.1 0-.2 0-.2.1h-.6c-.9 0-1.8-.4-2.3-1.1zm5.4 2.1h4v5.5h-4zm-9.8 12.2h1.3c3.2 0 5.9-2.5 6.2-5.7h3c-.2 2.3-1.6 4.3-3.6 5.3-.3.1-.5.3-.4.6s.3.5.6.4h.2c2.4-1.2 4-3.5 4.2-6.2h3c-.1 1.4-.5 5.9-3.1 7.3h-8.4c-1.2 0-2.3-.6-3-1.7zm7.9 2.6h3.6v6.4h-3.6zm-13.4 14.6h1.8c4 0 7.4-3.1 7.7-7.2h4c-.4 2-2.1 9.4-8.1 9.4h-1.3c-1.7.1-3.2-.8-4.1-2.2zm8.2 3.3h4.5v8.3h-4.4zm10.4 8.2h-4.8v-8.3h4.9zm19.7-8.2h6.1v8.3h-6.1zm77.7 8h-11.8l-4.4-9.2c-.5-1-1.6-1.7-2.7-1.7h-1.1l-2.6-6.6c-1.3-3.4-2.5-6.8-3.3-10.3 0-.1 0-.2-.1-.3-.6-2.3-1.1-4.9-1.6-7.7.1-.2.1-.4-.1-.5-.3-1.9-.5-4-.6-6.1 0-.1 0-.1 0-.2s0-.2-.1-.2c0-.9-.1-1.8-.1-2.7.6-.2 1-.8 1-1.4v-2.8c0-1.1-.7-2.1-1.7-2.5-.8-1.2-1.2-6.4-1.3-9.5 0-.3-.2-.5-.5-.5s-.5.2-.5.5c0 3.2-.5 6.5-1.4 9.6-.9.4-1.6 1.4-1.6 2.4v2.9c0 .6.4 1.2 1 1.4-.3 9.5-2.2 18.9-5.6 27.7-.1 0-.2.1-.2.2l-3.2 6.6h-.6c-1.1 0-2.2.6-2.7 1.7l-4.5 9.2h-6.7c-.3 0-.5.2-.5.5s.2.5.5.5h14.8c.3 0 .5-.2.5-.5s-.2-.5-.5-.5h-1.2c2.7-4.2 7.4-6.8 12.4-6.7 7.5 0 10.2 5 10.9 6.7h-3.9c-.3 0-.5.2-.5.5s.2.5.5.5h24c.3 0 .5-.2.5-.5s-.2-.5-.5-.5zm-33.5-48h5v1.1c0 .3-.2.5-.5.5h-3.7c-.1 0-.2 0-.3 0-.3 0-.5-.2-.5-.5zm7.9 25.5c.5 1.6 1 2.9 1.3 3.8l-5.3-2.2zm-5.3 1.1-4.5-1.8 4.4-2 4.5 2zm1.1-4.4 2.9-1.3c.3 1.1.6 2.1.8 3zm-1.2-.5-3.3-1.5 3.4-1.9 3.3 1.9zm1.1-4 2-1.1c.2.9.4 1.8.6 2.6zm-1-.6-2.4-1.4 2.3-1.4 2.4 1.4zm.9-3.4 1.4-.8c.1.7.2 1.3.3 1.9zm-1-.5-1.8-1.1 1.9-1.2 1.8 1.2zm1-2.9.9-.6c.1.4.1.9.2 1.3zm-.9-.6-1.5-.9 1.4-1 1.4 1.1zm.7-2.6.8-.6c0 .4.1.9.1 1.3zm-.8-.6-1.3-1 1.3-1.1 1.3 1.1zm.8-2.7.7-.6v1.2zm-.8-.7-.6-.5h1.1zm-.7.7-.9.7v-1.4zm-1 2.7.9.6-1 .7c.1-.4.1-.9.1-1.3zm-.3 3.1 1.1.7-1.3.8c.1-.5.2-1 .2-1.5zm-.5 3.3 1.4.9-1.8 1c.3-.6.4-1.2.4-1.9zm-.5 3.6 2.1 1.2-2.7 1.5c.2-.9.4-1.8.6-2.7zm-1 4.4 2.9 1.3-3.7 1.7c.2-.9.5-1.9.8-3zm-1.3 4.5 4.1 1.7-5.5 2.2c.4-.9.9-2.2 1.4-3.9zm5.5 2.2 6.3 2.6h-12.7zm-.2-35.1c.1 1.1.3 2.1.7 3.1h-1.4c.1-.6.4-1.7.7-3.1zm-1.4 4.3h3c.6.2 1 .8 1 1.5v.8h-5v-.8c0-.6.4-1.2 1-1.5zm-6.1 34.4h15.1l2.4 5.9h-3.7l-.8-2.2c-.3-.7-.9-1.1-1.6-1.1h-7.9c-.7 0-1.3.4-1.6.9l-1.3 2.4h-3.5zm12.7 5.9h-11l1-2c.1-.2.4-.4.7-.4h7.9c.3 0 .6.2.7.5zm6.7 10.9c-.6-1.6-3.4-7.7-12-7.7-5.6 0-10.7 2.9-13.5 7.7h-4.7l4.3-8.8c.3-.7 1-1.1 1.8-1.1h24.2c.8 0 1.5.4 1.8 1.1l4.2 8.7h-6.1zm-140.8-22.4c.3 0 .5-.2.5-.5 0-.1 0-.2-.1-.3-2.5-3.2-3.1-7.4-1.7-11.1 1.2-3 3.9-4.9 6.6-6.8 2.2-1.6 4.4-3.1 5.3-5.1.9 2 3.1 3.5 5.3 5.1 2.7 1.8 5.4 3.8 6.6 6.8 1.4 3.7.8 8-1.7 11.1-.2.2-.2.5.1.7.2.2.5.2.7-.1 2.7-3.4 3.4-8 1.8-12.1-1.3-3.3-4.3-5.4-7-7.2-2.9-2-5.4-3.8-5.4-6.5v-5.1c0-.3-.2-.5-.5-.5s-.5.2-.5.5v5.1c0 2.8-2.5 4.5-5.4 6.5-2.7 1.8-5.7 3.9-7 7.2-1.6 4.1-.9 8.7 1.8 12.2.3.1.4.1.6.1zm41.1 22.7h-1.6v-19.8c0-.3-.2-.5-.5-.5s-.5.2-.5.5v5.2h-1.3v-1.4c0-.3-.2-.5-.5-.5s-.5.2-.5.5v1.4h-5v-.6c0-.3-.2-.5-.5-.5s-.5.2-.5.5v.6h-1.6v-2.7h1.6c.3 0 .5-.2.5-.5 0-.2-.1-.3-.2-.4-.8-.5-1.3-1.3-1.4-2.2-.2-2.2-1.3-3.6-3.1-3.6v-1.1c0-.3-.2-.5-.5-.5s-.5.2-.5.5v1.2c-1.6.2-2.6 1.5-2.8 3.6-.1.9-.6 1.7-1.4 2.2-.2.1-.3.4-.2.7.1.2.3.2.4.2h1.4v2.7h-2.3v-3.6c0-.3-.2-.5-.5-.5s-.5.2-.5.5v1.5h-17.2v-1.5c0-.3-.2-.5-.5-.5s-.5.1-.5.4v3.6h-2.3v-2.7h1.4c.3 0 .5-.2.5-.5 0-.2-.1-.3-.2-.4-.8-.5-1.2-1.3-1.3-2.3-.2-2.1-1.2-3.4-2.8-3.6v-1.2c0-.3-.2-.5-.5-.5s-.5.2-.5.5v1.1c-1.8.1-2.9 1.4-3.1 3.6-.1.9-.6 1.7-1.4 2.2-.2.1-.3.4-.2.7.1.2.3.2.4.2h1.6v2.7h-1.5v-.6c0-.3-.2-.5-.5-.5s-.5.2-.5.5v.6h-5v-1.2c0-.3-.2-.5-.5-.5s-.5.2-.5.5v1.4h-1.3v-5.2c0-.3-.2-.5-.5-.5s-.5.2-.5.5v19.8h-10.2c-.3 0-.5.2-.5.5s.2.5.5.5h59.2c.3 0 .5-.2.5-.5v-14.1h7.3v13.6h-5.1c-.3 0-.5.2-.5.5s.2.5.5.5h7.7c.3 0 .5-.2.5-.5s-.2-.5-.5-.5zm-17.7-20.4c.2-1.8.9-2.7 2.2-2.7h.3c1.3 0 2.1.9 2.2 2.7.1.8.4 1.5.8 2.1h-6.5c.6-.7.9-1.4 1-2.1zm.3 3h4v2.7h-4zm-4.3 17.4h-3.9v-8.8c0-2.6-2.1-4.7-4.7-4.7s-4.7 2.1-4.7 4.7v8.8h-4.2v-15.7h17.5zm-4.9 0h-7.3v-8.8c0-2 1.6-3.7 3.7-3.7 2 0 3.7 1.6 3.7 3.7v8.8zm-21.4-20.4c.2-1.8.9-2.7 2.2-2.7h.3c1.3 0 2.1.9 2.2 2.7.1.8.4 1.5.8 2.1h-6.5c.6-.7.9-1.4 1-2.1zm.5 3h4v2.7h-4zm7.3 3.8v13.6h-9.8v-13.6zm-18.2 0h7.3v13.6h-7.3zm37.7 13.6v-13.6h9.8v13.6zm-.6-21.6c0-.3-.2-.5-.5-.5h-16.9c-.3 0-.5.2-.5.5s.2.5.5.5h16.9c.3 0 .5-.2.5-.5zm-16.7 2.4c-.3 0-.5.2-.5.5s.2.5.5.5h4.9c.3 0 .5-.2.5-.5s-.2-.5-.5-.5zm8.3 0c-.3 0-.5.2-.5.5s.2.5.5.5h6.4c.3 0 .5-.2.5-.5s-.2-.5-.5-.5zm-26.4 11.7h2.6c.3 0 .5-.2.5-.5 0-.2.1-2.5-.8-3.4-.5-.6-1.4-.6-2-.1 0 0 0 0-.1.1-.9.9-.7 3.2-.7 3.4 0 .3.2.5.5.5zm1-3.2c.1-.2.4-.2.6-.1 0 0 0 0 .1.1.4.7.6 1.4.5 2.2h-1.7c-.1-.7 0-1.5.5-2.2zm-.8 5.1c-.9.9-.7 3.1-.7 3.4s.2.5.5.5h2.6c.3 0 .5-.2.5-.5 0-.2.1-2.5-.8-3.4-.6-.6-1.5-.6-2.1 0 0-.1 0-.1 0 0zm.3 2.8c-.1-.8.1-1.5.4-2.2.1-.2.4-.2.6-.1 0 0 0 0 .1.1.4.7.6 1.4.5 2.2zm48.2-4.7h2.6c.3 0 .5-.2.5-.5 0-.2.1-2.5-.8-3.4-.5-.6-1.4-.6-2-.1 0 0 0 0-.1.1-.9.9-.7 3.1-.7 3.4s.2.5.5.5zm1-3.2c.1-.2.4-.2.6-.1 0 0 0 0 .1.1.4.7.6 1.4.5 2.2h-1.7c-.1-.7.1-1.5.5-2.2zm-1.5 8.5c0 .3.2.5.5.5h2.6c.3 0 .5-.2.5-.5 0-.2.1-2.5-.8-3.4-.5-.6-1.4-.6-2-.1 0 0 0 0-.1.1-.9.9-.7 3.1-.7 3.4zm1.5-2.8c.1-.2.4-.2.6-.1 0 0 0 0 .1.1.4.7.6 1.4.5 2.2h-1.6c-.2-.8 0-1.5.4-2.2zm-40-2.5h2.6c.3 0 .5-.2.5-.5 0-.2.1-2.5-.8-3.4-.5-.6-1.4-.6-2-.1 0 0 0 0-.1.1-.9.9-.7 3.1-.7 3.4s.2.5.5.5zm1-3.2c.1-.2.4-.2.6-.1 0 0 0 0 .1.1.4.7.6 1.4.5 2.2h-1.7c-.1-.7.1-1.5.5-2.2zm-.8 5.1c-.9.9-.7 3.1-.7 3.4s.2.5.5.5h2.6c.3 0 .5-.2.5-.5 0-.2.1-2.5-.8-3.4-.6-.6-1.5-.6-2.1 0 0-.1 0-.1 0 0zm.3 2.8c-.1-.8.1-1.5.5-2.2.1-.2.4-.2.6-.1 0 0 0 0 .1.1.4.7.6 1.4.5 2.2zm29-9c-.9.9-.7 3.1-.7 3.4s.2.5.5.5h2.6c.3 0 .5-.2.5-.5 0-.2.1-2.5-.8-3.4-.5-.6-1.4-.7-2.1 0 .1-.1 0-.1 0 0zm.3 2.8c-.1-.8.1-1.5.5-2.2.1-.2.4-.2.6-.1 0 0 0 0 .1.1.4.7.6 1.4.5 2.2zm-.3 2.9c-.9.9-.7 3.1-.7 3.4s.2.5.5.5h2.6c.3 0 .5-.2.5-.5 0-.2.1-2.5-.8-3.4-.5-.6-1.4-.6-2.1 0 .1-.1 0-.1 0 0zm.3 2.8c-.1-.8.1-1.5.5-2.2.1-.2.4-.2.6-.1 0 0 0 0 .1.1.4.7.6 1.4.5 2.2z" fill="#066fe2"/><path d="m150.7 65.8c0-.3-.2-.5-.5-.5h-10.7c-.3 0-.5.2-.5.5s.2.5.5.5h10.7c.3 0 .5-.2.5-.5zm-13.5 0v18.9c0 .3.2.5.5.5s.5-.2.5-.5v-19.1c0-.1-.1-.3-.1-.3l-.7-.7v-14.6c0-.3-.2-.5-.5-.5s-.5.2-.5.5v14.8c0 .1.1.3.1.3zm2.4 3.1c.3 0 .5-.2.5-.5v-.8c0-.3-.2-.5-.5-.5s-.5.2-.5.5v.8c0 .3.2.5.5.5zm1.9-1.8c-.3 0-.5.2-.5.5v.8c0 .3.2.5.5.5s.5-.2.5-.5v-.8c0-.2-.2-.5-.5-.5zm1.9 1.8c.3 0 .5-.2.5-.5v-.8c0-.3-.2-.5-.5-.5s-.5.2-.5.5v.8c0 .3.2.5.5.5zm2.6-.5v-.8c0-.3-.2-.5-.5-.5s-.5.2-.5.5v.8c0 .3.2.5.5.5s.5-.2.5-.5zm3.8.5c.3 0 .5-.2.5-.5v-.8c0-.3-.2-.5-.5-.5s-.5.2-.5.5v.8c0 .3.2.5.5.5zm-2.1 0c.3 0 .5-.2.5-.5v-.8c0-.3-.2-.5-.5-.5s-.5.2-.5.5v.8c0 .3.2.5.5.5zm-7.8 9.1c.3 0 .5-.2.5-.5v-6.7c0-.3-.2-.5-.5-.5s-.5.2-.5.5v6.7c0 .3.3.5.5.5zm2.6-7.3c-.3 0-.5.2-.5.5v1.7c0 .3.2.5.5.5s.5-.2.5-.5v-1.7c0-.3-.2-.5-.5-.5zm-.5 13c0 .3.2.5.5.5s.5-.2.5-.5v-8.7c0-.3-.2-.5-.5-.5s-.5.2-.5.5zm3-2.7c.3 0 .5-.2.5-.5v-9.5c0-.3-.2-.5-.5-.5s-.5.2-.5.5v9.5c0 .3.2.5.5.5zm-.5 5.3c0 .3.2.5.5.5s.5-.2.5-.5v-3.5c0-.3-.2-.5-.5-.5s-.5.2-.5.5zm3.2.5c.3 0 .5-.2.5-.5v-14.3c0-.3-.2-.5-.5-.5s-.5.2-.5.5v14.3c0 .2.3.5.5.5zm2.6-16c0-.3-.2-.5-.5-.5s-.5.2-.5.5v4c0 .3.2.5.5.5s.5-.2.5-.5zm-.5 10.4c.3 0 .5-.2.5-.5v-1.7c0-.3-.2-.5-.5-.5s-.5.2-.5.5v1.8c0 .2.3.5.5.4zm-5.1-17.4c3 0 5.5-2.5 5.5-5.5s-2.5-5.5-5.5-5.5-5.5 2.5-5.5 5.5 2.4 5.5 5.5 5.5zm0-10c2.5 0 4.5 2 4.5 4.5s-2 4.5-4.5 4.5-4.5-2-4.5-4.5c-.1-2.5 1.9-4.5 4.5-4.5-.1-.1 0-.1 0 0zm.4 5.9c.1.2.5.3.7.2s.3-.5.2-.7l-.7-1 .8-2.9c.1-.3-.1-.6-.4-.6-.3-.1-.6.1-.6.4l-.8 3.1c0 .1 0 .3.1.4zm-7.8-12.1h1.1v3.2.1c-.3 0-.5.2-.5.5s.2.5.5.5h14.1v12.7l-1 1c-.1.1-.1.2-.1.3v21.8c0 .3.2.5.5.5s.5-.2.5-.5v-21.6l1-1c.1-.1.1-.2.1-.3v-14.8c0-.3-.2-.5-.5-.5s-.5.2-.5.5v.9h-1v-3.3h1.5c.3 0 .5-.2.5-.5v-3.2c0-.3-.2-.5-.5-.5s-.5.2-.5.5v2.8h-14.7v-2.8c0-.3-.2-.5-.5-.5s-.5.2-.5.5v3.2c0 .3.2.5.5.5zm11.8 0h1.4v3.3h-1.4zm-2.3 3.2v-3.2h1.4v3.3h-1.4c-.1-.1 0-.1 0-.1zm-2.8-3.2h1.7v3.2.1h-1.7zm-2.4 0h1.4v3.3h-1.4zm-2.3 3.2v-3.2h1.4v3.3h-1.4c0-.1 0-.1 0-.1zm-.7-4.9h.2c.2 0 .4-.1.5-.3l1.8-4.9h8.2l1.5 4.9c.1.3.4.4.6.3.3-.1.4-.4.4-.6l-1.6-5.1v-3.8c0-.3-.2-.5-.5-.5h-8.9c-.3 0-.5.2-.5.5v3.8l-1.9 5.1c-.1.2 0 .5.2.6zm2.6-9h3.2v1.9c0 .3.2.5.5.5s.5-.2.5-.5v-1.9h3.8v2.9h-1.8v-1.4c0-.3-.2-.5-.5-.5s-.5.2-.5.5v1.4h-3.3v-1.1c0-.3-.2-.5-.5-.5s-.5.2-.5.5v1.1h-.9zm-.4 7.2v1.2c0 .3.2.5.5.5s.5-.2.5-.5v-1.2c0-.3-.2-.5-.5-.5s-.5.2-.5.5zm2.6 0v1.2c0 .3.2.5.5.5s.5-.2.5-.5v-1.2c0-.3-.2-.5-.5-.5s-.5.2-.5.5zm2.3 0v1.2c0 .3.2.5.5.5s.5-.2.5-.5v-1.2c0-.3-.2-.5-.5-.5s-.5.2-.5.5zm2.5 0v1.2c0 .3.2.5.5.5s.5-.2.5-.5v-1.2c0-.3-.2-.5-.5-.5s-.5.2-.5.5zm-6.1-2.4v1.2c0 .3.2.5.5.5s.5-.2.5-.5v-1.2c0-.3-.2-.5-.5-.5s-.5.2-.5.5zm2.4 0v1.2c0 .3.2.5.5.5s.5-.2.5-.5v-1.2c0-.3-.2-.5-.5-.5s-.5.2-.5.5zm2.5 0v1.2c0 .3.2.5.5.5s.5-.2.5-.5v-1.2c0-.3-.2-.5-.5-.5s-.5.2-.5.5zm2.6-7.8h-8.9c-.3 0-.5.2-.5.5s.2.5.5.5h8.9c.3 0 .5-.2.5-.5s-.2-.5-.5-.5zm-8.9-1.1h9c.3 0 .5-.2.5-.5 0-.1-.1-.3-.1-.4-2.6-2.7-4.3-11.1-4.4-11.6v-.1l1 .6c.2.1.5.1.7-.2.1-.2.1-.5-.2-.7l-1.5-.9v-.7c0-.3-.2-.5-.5-.5s-.5.2-.5.5v.8l-1.4.9c-.2.1-.3.5-.2.7s.5.3.7.2l.9-.5v.1c-.5 5.9-4.3 11.5-4.4 11.6-.2.2-.1.5.1.7.1-.1.2 0 .3 0zm4.5-9.7c.6 2.6 1.8 6.4 3.4 8.7h-7c1.7-2.7 2.9-5.7 3.6-8.7zm-.9 6c-.3 0-.5.2-.5.5v1c0 .3.2.5.5.5s.5-.2.5-.5v-1c0-.3-.2-.5-.5-.5zm1.7 0c-.3 0-.5.2-.5.5v1c0 .3.2.5.5.5s.5-.2.5-.5v-1c0-.3-.2-.5-.5-.5zm-6.3 23.7c-.7.4-1.1 1.1-1.3 1.8 0 .3.1.5.4.6h.1c.2 0 .4-.2.5-.4.2-.5.5-.9.9-1.2.2-.2.3-.5.1-.7s-.5-.3-.7-.1zm-1.3 9.3c.1.3.7 1.4 1.5 1.6h.1c.3 0 .5-.2.6-.4s-.2-.5-.4-.6c-.4-.3-.6-.6-.8-1.1-.1-.3-.4-.4-.7-.2s-.4.5-.3.7zm-70.5-.5v-10c0-3.9 3.2-7.1 7.1-7.1s7.1 3.2 7.1 7.1v10c0 .3.2.5.5.5h2.4v14.2c0 .3.2.5.5.5s.5-.2.5-.5v-14.7c0-.3-.2-.5-.5-.5v-10.5c0-.2-.1-.3-.2-.4l-2.4-1.6 2.6-6.1c.1-.3 0-.5-.3-.7l-2.6-1c-.2-.9-.6-1.7-1.1-2.4l2-4.2c.1-.2 0-.5-.2-.7l-2.4-1.2c-.1 0-.2 0-.3 0l-.1-.1c0-.1.1-.2.1-.2v-.1c.1 0 .2-.1.3-.2l2.2-4.5c.1-.2 0-.5-.2-.7l-2.6-1.2c-.1 0-.1 0-.2 0-.1-.3-.3-.5-.4-.8 0 0 0 0 0-.1v-1.8c0-1.2-.5-2.3-1.3-3.2v-3.9c0-1.6-1.2-2.9-2.7-3.2v-4.5c0-.3-.2-.5-.5-.5s-.5.2-.5.5v4.5c-1.6.2-2.7 1.6-2.7 3.2v3.8c-.9.9-1.4 2-1.4 3.3v1.6c-.4.5-.6 1.1-.8 1.7l-2.4 1.1c-.3.1-.4.4-.2.7l2.2 4.5c0 .1.1.1.1.1-.1 0-.2 0-.3 0l-2.4 1.1c-.3.1-.4.4-.2.7l2 4.2c0 .1.1.1.2.2-.5.8-.8 1.7-1 2.6l-2.5 1c-.3.1-.4.4-.3.6l2.5 5.9-2.5 1.6c-.1.1-.2.3-.2.4v10.6h-.2c-.3 0-.5.2-.5.5v11.5c0 .3.2.5.5.5s.5-.2.5-.5v-11h2.4c.2-.1.4-.3.4-.6zm16.6-10.8v10.3h-1.4v-9.5c0-.6-.1-1.2-.2-1.8zm-.1-8.3-1.5 3.5v-4.1zm-1.9-8.3-1 2v-.5c0-.7-.1-1.4-.4-2.1zm-.5-7-1.4 2.8v-2.5c0-.3 0-.7-.1-1zm-9-11.6c0-1.2 1-2.2 2.2-2.2s2.2 1 2.2 2.2v3.1c-.5-.3-1.2-.5-1.8-.6v-1.6c0-.3-.2-.5-.5-.5s-.5.2-.5.5v1.6c-.6.1-1.2.2-1.7.5v-3zm-1.4 7.1c-.1-2 1.4-3.7 3.4-3.8s3.7 1.4 3.8 3.4v.4.7c-.9-.8-2-1.3-3.2-1.4v-.5c0-.3-.2-.5-.5-.5s-.5.2-.5.5v.5c-1.1.1-2.1.5-3 1.2zm-1 4.8c0-2.5 2-4.5 4.5-4.5s4.5 2 4.5 4.5v3.6c-.4-.4-.9-.7-1.4-1l.4-1.6c.1-.3-.1-.6-.4-.6s-.6.1-.6.4l-.4 1.4c-.6-.2-1.2-.4-1.9-.4v-2.2c0-.3-.2-.5-.5-.5s-.5.2-.5.5v2.1c-.6.1-1.1.2-1.6.4l-.4-1.5c-.1-.3-.3-.4-.6-.4s-.4.3-.4.6l.4 1.6c-.5.3-1 .6-1.4 1zm-1 8.2c0-3 2.5-5.5 5.5-5.5s5.5 2.5 5.5 5.5v1.5c-.6-.6-1.3-1-2-1.4l.6-.9c.1-.2.1-.5-.2-.7-.2-.1-.5-.1-.7.1l-.7 1.1c-.6-.2-1.3-.4-2.1-.4v-2c0-.3-.2-.5-.5-.5s-.5.2-.5.5v2c-.7.1-1.3.2-1.9.4l-.8-1.1c-.2-.2-.5-.3-.7-.1s-.3.5-.1.7l.7.9c-.8.4-1.5.9-2.1 1.6zm-1.3-8 1.3-.6v3.1zm.3 8v.5l-1-2 1.3-.6c-.2.7-.3 1.4-.3 2.1zm-.1 7c0-3.7 3-6.7 6.7-6.7s6.7 3 6.7 6.7v4.5c-.6-1-1.4-1.8-2.4-2.4l1-1c.2-.2.2-.5 0-.7s-.5-.2-.7 0l-1.3 1.2c-1-.5-2-.7-3.1-.8v-2.4c0-.3-.2-.5-.5-.5s-.5.2-.5.5v2.4c-1 .1-2.1.3-3 .8l-1.2-1.2c-.2-.2-.5-.2-.7 0s-.2.5 0 .7l1 1c-.9.6-1.6 1.3-2.2 2.1zm-1.5 8.9v9.5h-1.2v-10.2l1.3-.8c-.2.4-.2 1-.1 1.5zm.5-8.9v3.7l-1.5-3.5 1.5-.6c-.1.1-.1.2 0 .4zm3.7 24.3h-1.4c-.3 0-.5.2-.5.5v6.3c0 .3.2.5.5.5s.5-.2.5-.5v-5.8h1.4c.3 0 .5-.2.5-.5v-15.4c0-1.5 1.3-2.8 2.8-2.8s2.8 1.3 2.8 2.8v15.4c0 .3.2.5.5.5h1.3v10.1c0 .3.2.5.5.5s.5-.2.5-.5v-10.6c0-.3-.2-.5-.5-.5h-1.3v-14.9c0-.5-.1-1-.3-1.4l1.4-1.4c.2-.2.2-.5 0-.7s-.5-.2-.7 0l-1.2 1.2c-.6-.8-1.5-1.3-2.5-1.5v-1.7c0-.3-.2-.5-.5-.5s-.5.2-.5.5v1.7c-1.1.1-2.1.7-2.7 1.7l-1.3-1.3c-.2-.2-.5-.2-.7 0s-.2.5 0 .7l1.6 1.6c-.1.4-.2.8-.2 1.2zm3.1-14c0-.3-.2-.5-.5-.5s-.5.2-.5.5v.6c0 .3.2.5.5.5s.5-.2.5-.5zm0 6.4c0-.3-.2-.5-.5-.5s-.5.2-.5.5v1.1c0 .3.2.5.5.5s.5-.2.5-.5zm0 6.8c0-.3-.2-.5-.5-.5s-.5.2-.5.5v1.1c0 .3.2.5.5.5s.5-.2.5-.5zm-.5 6.4c-.3 0-.5.2-.5.5v.6c0 .3.2.5.5.5s.5-.2.5-.5v-.6c0-.3-.2-.5-.5-.5zm2.9-19.6c0-.3-.2-.5-.5-.5s-.5.2-.5.5v.6c0 .3.2.5.5.5s.5-.2.5-.5zm0 7.1c0-.3-.2-.5-.5-.5s-.5.2-.5.5v1.3c0 .3.2.5.5.5s.5-.2.5-.5zm0 7.8c0-.3-.2-.5-.5-.5s-.5.2-.5.5v1.3c0 .3.2.5.5.5s.5-.2.5-.5zm-.5 7.3c-.3 0-.5.2-.5.5v.6c0 .3.2.5.5.5s.5-.2.5-.5v-.6c0-.2-.2-.5-.5-.5zm22.5-48.8c-3.2 0-5.8 2.6-5.8 5.8s2.6 5.9 5.8 5.9 5.8-2.6 5.8-5.9c0-3.2-2.6-5.8-5.8-5.8zm0 10.7c-2.7 0-4.8-2.2-4.8-4.8s2.2-4.9 4.8-4.9c2.7 0 4.8 2.2 4.8 4.8 0 2.7-2.1 4.9-4.8 4.9zm-13.2 45.9c0-.3-.2-.5-.5-.5h-14.3c-.3 0-.5.2-.5.5s.2.5.5.5h14.3c.3 0 .5-.2.5-.5zm-10.9 2.9c0-.3-.2-.5-.5-.5h-6.2c-.3 0-.5.2-.5.5s.2.5.5.5h6.2c.3 0 .5-.2.5-.5zm3.1-.6c-.3 0-.5.2-.5.5s.2.5.5.5h4.7c.3 0 .5-.2.5-.5s-.2-.5-.5-.5zm3.5 3.9c0-.3-.2-.5-.5-.5h-6.6c-.3 0-.5.2-.5.5s.2.5.5.5h6.6c.3 0 .5-.2.5-.5zm8.4 5.1h-10.9c-.3 0-.5.2-.5.5s.2.5.5.5h10.9c.3 0 .5-.2.5-.5s-.2-.5-.5-.5zm52.1-5.1c0-.3-.2-.5-.5-.5h-7.2c-.3 0-.5.2-.5.5s.2.5.5.5h7.2c.2 0 .5-.2.5-.5zm-5.9 3.5c0 .3.2.5.5.5h8.7c.3 0 .5-.2.5-.5s-.2-.5-.5-.5h-8.6c-.3 0-.5.2-.6.5zm13.5-1.4c0 .3.2.5.5.5h4.6c.3 0 .5-.2.5-.5s-.2-.5-.5-.5h-4.6c-.3 0-.5.3-.5.5zm-3.2 6.9c0-.3-.2-.5-.5-.5h-9.3c-.3 0-.5.2-.5.5s.2.5.5.5h9.3c.3 0 .5-.3.5-.5zm8.2 3.1h-10.8c-.3 0-.5.2-.5.5s.2.5.5.5h10.8c.3 0 .5-.2.5-.5s-.2-.5-.5-.5zm-5.7-2.6h3.8c.3 0 .5-.2.5-.5s-.2-.5-.5-.5h-3.8c-.3 0-.5.2-.5.5s.2.5.5.5zm-75.8-5.4h-3c-.3 0-.5.2-.5.5s.2.5.5.5h3c.3 0 .5-.2.5-.5s-.2-.5-.5-.5z" fill="#6d9feb"/></svg>